<svg width="371" height="84" viewBox="0 0 371 84" fill="none" xmlns="http://www.w3.org/2000/svg">
<rect x="0.5" y="0.5" width="352" height="83" rx="8.5" fill="#853BCE" fill-opacity="0.1"/>
<rect x="0.5" y="0.5" width="352" height="83" rx="8.5" stroke="#853BCE"/>
<rect x="20.5" y="13.5" width="57" height="57" rx="28.5" fill="#63497D" fill-opacity="0.22"/>
<rect x="20.5" y="13.5" width="57" height="57" rx="28.5" stroke="#853BCE"/>
<path d="M49 24.5C46.6362 24.5 44.2956 24.9639 42.1117 25.8652C39.9278 26.7665 37.9435 28.0875 36.2721 29.7529C32.8964 33.1163 31 37.678 31 42.4345C31 50.3615 36.166 57.0869 43.312 59.4722C44.212 59.6157 44.5 59.0597 44.5 58.5755V55.5446C39.514 56.6206 38.452 53.1413 38.452 53.1413C37.624 51.061 36.454 50.505 36.454 50.505C34.816 49.393 36.58 49.4289 36.58 49.4289C38.38 49.5545 39.334 51.2762 39.334 51.2762C40.9 54.0022 43.546 53.1952 44.572 52.7647C44.734 51.599 45.202 50.8099 45.706 50.3615C41.71 49.9131 37.516 48.3708 37.516 41.5377C37.516 39.547 38.2 37.9509 39.37 36.6775C39.19 36.2291 38.56 34.364 39.55 31.9428C39.55 31.9428 41.062 31.4586 44.5 33.7721C45.922 33.3776 47.47 33.1803 49 33.1803C50.53 33.1803 52.078 33.3776 53.5 33.7721C56.938 31.4586 58.45 31.9428 58.45 31.9428C59.44 34.364 58.81 36.2291 58.63 36.6775C59.8 37.9509 60.484 39.547 60.484 41.5377C60.484 48.3887 56.272 49.8952 52.258 50.3436C52.906 50.8995 53.5 51.9935 53.5 53.6615V58.5755C53.5 59.0597 53.788 59.6336 54.706 59.4722C61.852 57.069 67 50.3615 67 42.4345C67 40.0793 66.5344 37.7472 65.6298 35.5712C64.7252 33.3953 63.3994 31.4183 61.7279 29.7529C60.0565 28.0875 58.0722 26.7665 55.8883 25.8652C53.7044 24.9639 51.3638 24.5 49 24.5Z" fill="#853BCE"/>
<path d="M99.0227 29C98.929 28.7131 98.8054 28.456 98.652 28.2287C98.5014 27.9986 98.321 27.8026 98.1108 27.6406C97.9034 27.4787 97.6676 27.3551 97.4034 27.2699C97.1392 27.1847 96.8494 27.142 96.5341 27.142C96.017 27.142 95.5469 27.2756 95.1236 27.5426C94.7003 27.8097 94.3636 28.2031 94.1136 28.723C93.8636 29.2429 93.7386 29.8807 93.7386 30.6364C93.7386 31.392 93.8651 32.0298 94.1179 32.5497C94.3707 33.0696 94.7131 33.4631 95.1449 33.7301C95.5767 33.9972 96.0625 34.1307 96.6023 34.1307C97.1023 34.1307 97.5426 34.0241 97.9233 33.8111C98.3068 33.5952 98.6051 33.2912 98.8182 32.8991C99.0341 32.5043 99.142 32.0398 99.142 31.5057L99.4659 31.5739H96.8409V30.6364H100.165V31.5739C100.165 32.2926 100.011 32.9176 99.7045 33.4489C99.4006 33.9801 98.9801 34.392 98.4432 34.6847C97.9091 34.9744 97.2955 35.1193 96.6023 35.1193C95.8295 35.1193 95.1506 34.9375 94.5653 34.5739C93.983 34.2102 93.5284 33.6932 93.2017 33.0227C92.8778 32.3523 92.7159 31.5568 92.7159 30.6364C92.7159 29.946 92.8082 29.3253 92.9929 28.7741C93.1804 28.2202 93.4446 27.7486 93.7855 27.3594C94.1264 26.9702 94.5298 26.6719 94.9957 26.4645C95.4616 26.2571 95.9744 26.1534 96.5341 26.1534C96.9943 26.1534 97.4233 26.223 97.821 26.3622C98.2216 26.4986 98.5781 26.6932 98.8906 26.946C99.206 27.196 99.4688 27.4957 99.679 27.8452C99.8892 28.1918 100.034 28.5767 100.114 29H99.0227ZM102.249 35V28.4545H103.254V35H102.249ZM102.76 27.3636C102.564 27.3636 102.395 27.2969 102.253 27.1634C102.114 27.0298 102.044 26.8693 102.044 26.6818C102.044 26.4943 102.114 26.3338 102.253 26.2003C102.395 26.0668 102.564 26 102.76 26C102.956 26 103.124 26.0668 103.263 26.2003C103.405 26.3338 103.476 26.4943 103.476 26.6818C103.476 26.8693 103.405 27.0298 103.263 27.1634C103.124 27.2969 102.956 27.3636 102.76 27.3636ZM107.943 28.4545V29.3068H104.551V28.4545H107.943ZM105.539 26.8864H106.545V33.125C106.545 33.4091 106.586 33.6222 106.669 33.7642C106.754 33.9034 106.862 33.9972 106.993 34.0455C107.126 34.0909 107.267 34.1136 107.414 34.1136C107.525 34.1136 107.616 34.108 107.687 34.0966C107.758 34.0824 107.815 34.071 107.858 34.0625L108.062 34.9659C107.994 34.9915 107.899 35.017 107.777 35.0426C107.654 35.071 107.5 35.0852 107.312 35.0852C107.028 35.0852 106.75 35.0241 106.477 34.902C106.207 34.7798 105.983 34.5938 105.804 34.3438C105.627 34.0938 105.539 33.7784 105.539 33.3977V26.8864ZM112.831 35V28.4545H113.802V29.4432H113.87C113.99 29.1193 114.206 28.8565 114.518 28.6548C114.831 28.4531 115.183 28.3523 115.575 28.3523C115.649 28.3523 115.741 28.3537 115.852 28.3565C115.963 28.3594 116.047 28.3636 116.103 28.3693V29.392C116.069 29.3835 115.991 29.3707 115.869 29.3537C115.75 29.3338 115.623 29.3239 115.49 29.3239C115.172 29.3239 114.887 29.3906 114.637 29.5241C114.39 29.6548 114.194 29.8366 114.049 30.0696C113.907 30.2997 113.836 30.5625 113.836 30.858V35H112.831ZM119.841 35.1364C119.21 35.1364 118.666 34.9972 118.208 34.7188C117.754 34.4375 117.403 34.0455 117.156 33.5426C116.912 33.0369 116.789 32.4489 116.789 31.7784C116.789 31.108 116.912 30.517 117.156 30.0057C117.403 29.4915 117.747 29.0909 118.187 28.804C118.63 28.5142 119.147 28.3693 119.738 28.3693C120.079 28.3693 120.416 28.4261 120.748 28.5398C121.081 28.6534 121.383 28.8381 121.656 29.0938C121.929 29.3466 122.146 29.6818 122.308 30.0994C122.47 30.517 122.551 31.0312 122.551 31.642V32.0682H117.505V31.1989H121.528C121.528 30.8295 121.454 30.5 121.306 30.2102C121.162 29.9205 120.954 29.6918 120.684 29.5241C120.417 29.3565 120.102 29.2727 119.738 29.2727C119.338 29.2727 118.991 29.3722 118.699 29.571C118.409 29.767 118.186 30.0227 118.029 30.3381C117.873 30.6534 117.795 30.9915 117.795 31.3523V31.9318C117.795 32.4261 117.88 32.8452 118.051 33.1889C118.224 33.5298 118.464 33.7898 118.771 33.9688C119.078 34.1449 119.434 34.233 119.841 34.233C120.105 34.233 120.343 34.196 120.556 34.1222C120.772 34.0455 120.958 33.9318 121.115 33.7812C121.271 33.6278 121.392 33.4375 121.477 33.2102L122.449 33.483C122.346 33.8125 122.174 34.1023 121.933 34.3523C121.691 34.5994 121.393 34.7926 121.038 34.9318C120.683 35.0682 120.284 35.1364 119.841 35.1364ZM124.081 37.4545V28.4545H125.052V29.4943H125.172C125.245 29.3807 125.348 29.2358 125.478 29.0597C125.612 28.8807 125.802 28.7216 126.049 28.5824C126.299 28.4403 126.637 28.3693 127.064 28.3693C127.615 28.3693 128.1 28.5071 128.521 28.7827C128.941 29.0582 129.27 29.4489 129.505 29.9545C129.741 30.4602 129.859 31.0568 129.859 31.7443C129.859 32.4375 129.741 33.0384 129.505 33.5469C129.27 34.0526 128.943 34.4446 128.525 34.723C128.108 34.9986 127.626 35.1364 127.081 35.1364C126.66 35.1364 126.324 35.0668 126.071 34.9276C125.818 34.7855 125.623 34.625 125.487 34.446C125.35 34.2642 125.245 34.1136 125.172 33.9943H125.086V37.4545H124.081ZM125.069 31.7273C125.069 32.2216 125.142 32.6577 125.287 33.0355C125.431 33.4105 125.643 33.7045 125.922 33.9176C126.2 34.1278 126.541 34.233 126.944 34.233C127.365 34.233 127.716 34.1222 127.997 33.9006C128.281 33.6761 128.494 33.375 128.636 32.9972C128.781 32.6165 128.853 32.1932 128.853 31.7273C128.853 31.267 128.782 30.8523 128.64 30.483C128.501 30.1108 128.289 29.8168 128.005 29.6009C127.724 29.3821 127.37 29.2727 126.944 29.2727C126.535 29.2727 126.191 29.3764 125.913 29.5838C125.635 29.7884 125.424 30.0753 125.282 30.4446C125.14 30.8111 125.069 31.2386 125.069 31.7273ZM134.052 35.1364C133.461 35.1364 132.943 34.9957 132.497 34.7145C132.054 34.4332 131.707 34.0398 131.457 33.5341C131.21 33.0284 131.086 32.4375 131.086 31.7614C131.086 31.0795 131.21 30.4844 131.457 29.9759C131.707 29.4673 132.054 29.0724 132.497 28.7912C132.943 28.5099 133.461 28.3693 134.052 28.3693C134.643 28.3693 135.16 28.5099 135.603 28.7912C136.049 29.0724 136.396 29.4673 136.643 29.9759C136.893 30.4844 137.018 31.0795 137.018 31.7614C137.018 32.4375 136.893 33.0284 136.643 33.5341C136.396 34.0398 136.049 34.4332 135.603 34.7145C135.16 34.9957 134.643 35.1364 134.052 35.1364ZM134.052 34.233C134.501 34.233 134.87 34.1179 135.16 33.8878C135.45 33.6577 135.664 33.3551 135.804 32.9801C135.943 32.6051 136.012 32.1989 136.012 31.7614C136.012 31.3239 135.943 30.9162 135.804 30.5384C135.664 30.1605 135.45 29.8551 135.16 29.6222C134.87 29.3892 134.501 29.2727 134.052 29.2727C133.603 29.2727 133.234 29.3892 132.944 29.6222C132.654 29.8551 132.44 30.1605 132.301 30.5384C132.162 30.9162 132.092 31.3239 132.092 31.7614C132.092 32.1989 132.162 32.6051 132.301 32.9801C132.44 33.3551 132.654 33.6577 132.944 33.8878C133.234 34.1179 133.603 34.233 134.052 34.233ZM143.19 29.9205L142.286 30.1761C142.229 30.0256 142.146 29.8793 142.035 29.7372C141.927 29.5923 141.779 29.473 141.592 29.3793C141.404 29.2855 141.164 29.2386 140.871 29.2386C140.471 29.2386 140.137 29.331 139.87 29.5156C139.606 29.6974 139.474 29.929 139.474 30.2102C139.474 30.4602 139.565 30.6577 139.746 30.8026C139.928 30.9474 140.212 31.0682 140.599 31.1648L141.57 31.4034C142.156 31.5455 142.592 31.7628 142.879 32.0554C143.165 32.3452 143.309 32.7187 143.309 33.1761C143.309 33.5511 143.201 33.8864 142.985 34.1818C142.772 34.4773 142.474 34.7102 142.09 34.8807C141.707 35.0511 141.261 35.1364 140.752 35.1364C140.085 35.1364 139.532 34.9915 139.094 34.7017C138.657 34.4119 138.38 33.9886 138.263 33.4318L139.218 33.1932C139.309 33.5455 139.481 33.8097 139.734 33.9858C139.989 34.1619 140.323 34.25 140.735 34.25C141.204 34.25 141.576 34.1506 141.852 33.9517C142.13 33.75 142.269 33.5085 142.269 33.2273C142.269 33 142.19 32.8097 142.031 32.6562C141.871 32.5 141.627 32.3835 141.298 32.3068L140.207 32.0511C139.607 31.9091 139.167 31.6889 138.886 31.3906C138.607 31.0895 138.468 30.7131 138.468 30.2614C138.468 29.892 138.572 29.5653 138.779 29.2812C138.989 28.9972 139.275 28.7741 139.636 28.6122C139.999 28.4503 140.411 28.3693 140.871 28.3693C141.519 28.3693 142.028 28.5114 142.397 28.7955C142.769 29.0795 143.033 29.4545 143.19 29.9205ZM144.823 35V28.4545H145.828V35H144.823ZM145.334 27.3636C145.138 27.3636 144.969 27.2969 144.827 27.1634C144.688 27.0298 144.618 26.8693 144.618 26.6818C144.618 26.4943 144.688 26.3338 144.827 26.2003C144.969 26.0668 145.138 26 145.334 26C145.53 26 145.698 26.0668 145.837 26.2003C145.979 26.3338 146.05 26.4943 146.05 26.6818C146.05 26.8693 145.979 27.0298 145.837 27.1634C145.698 27.2969 145.53 27.3636 145.334 27.3636ZM150.517 28.4545V29.3068H147.125V28.4545H150.517ZM148.114 26.8864H149.119V33.125C149.119 33.4091 149.161 33.6222 149.243 33.7642C149.328 33.9034 149.436 33.9972 149.567 34.0455C149.7 34.0909 149.841 34.1136 149.989 34.1136C150.099 34.1136 150.19 34.108 150.261 34.0966C150.332 34.0824 150.389 34.071 150.432 34.0625L150.636 34.9659C150.568 34.9915 150.473 35.017 150.351 35.0426C150.229 35.071 150.074 35.0852 149.886 35.0852C149.602 35.0852 149.324 35.0241 149.051 34.902C148.781 34.7798 148.557 34.5938 148.378 34.3438C148.202 34.0938 148.114 33.7784 148.114 33.3977V26.8864ZM154.619 35.1364C154.028 35.1364 153.509 34.9957 153.063 34.7145C152.62 34.4332 152.273 34.0398 152.023 33.5341C151.776 33.0284 151.653 32.4375 151.653 31.7614C151.653 31.0795 151.776 30.4844 152.023 29.9759C152.273 29.4673 152.62 29.0724 153.063 28.7912C153.509 28.5099 154.028 28.3693 154.619 28.3693C155.21 28.3693 155.727 28.5099 156.17 28.7912C156.616 29.0724 156.962 29.4673 157.21 29.9759C157.46 30.4844 157.585 31.0795 157.585 31.7614C157.585 32.4375 157.46 33.0284 157.21 33.5341C156.962 34.0398 156.616 34.4332 156.17 34.7145C155.727 34.9957 155.21 35.1364 154.619 35.1364ZM154.619 34.233C155.067 34.233 155.437 34.1179 155.727 33.8878C156.016 33.6577 156.231 33.3551 156.37 32.9801C156.509 32.6051 156.579 32.1989 156.579 31.7614C156.579 31.3239 156.509 30.9162 156.37 30.5384C156.231 30.1605 156.016 29.8551 155.727 29.6222C155.437 29.3892 155.067 29.2727 154.619 29.2727C154.17 29.2727 153.8 29.3892 153.511 29.6222C153.221 29.8551 153.006 30.1605 152.867 30.5384C152.728 30.9162 152.658 31.3239 152.658 31.7614C152.658 32.1989 152.728 32.6051 152.867 32.9801C153.006 33.3551 153.221 33.6577 153.511 33.8878C153.8 34.1179 154.17 34.233 154.619 34.233ZM159.12 35V28.4545H160.091V29.4432H160.159C160.279 29.1193 160.495 28.8565 160.807 28.6548C161.12 28.4531 161.472 28.3523 161.864 28.3523C161.938 28.3523 162.03 28.3537 162.141 28.3565C162.252 28.3594 162.336 28.3636 162.392 28.3693V29.392C162.358 29.3835 162.28 29.3707 162.158 29.3537C162.039 29.3338 161.912 29.3239 161.779 29.3239C161.461 29.3239 161.176 29.3906 160.926 29.5241C160.679 29.6548 160.483 29.8366 160.338 30.0696C160.196 30.2997 160.125 30.5625 160.125 30.858V35H159.12ZM164.431 37.4545C164.261 37.4545 164.109 37.4403 163.975 37.4119C163.842 37.3864 163.75 37.3608 163.699 37.3352L163.954 36.4489C164.199 36.5114 164.414 36.5341 164.602 36.517C164.789 36.5 164.956 36.4162 165.1 36.2656C165.248 36.1179 165.383 35.8778 165.505 35.5455L165.693 35.0341L163.272 28.4545H164.363L166.17 33.6705H166.238L168.045 28.4545H169.136L166.358 35.9545C166.233 36.2926 166.078 36.5724 165.893 36.794C165.708 37.0185 165.494 37.1847 165.25 37.2926C165.008 37.4006 164.735 37.4545 164.431 37.4545Z" fill="#C4C4C4" fill-opacity="0.66"/>
<path d="M96.8864 57.1818C96.0455 57.1818 95.3201 56.9962 94.7102 56.625C94.1042 56.25 93.6364 55.7273 93.3068 55.0568C92.9811 54.3826 92.8182 53.5985 92.8182 52.7045C92.8182 51.8106 92.9811 51.0227 93.3068 50.3409C93.6364 49.6553 94.0947 49.1212 94.6818 48.7386C95.2727 48.3523 95.9621 48.1591 96.75 48.1591C97.2045 48.1591 97.6534 48.2348 98.0966 48.3864C98.5398 48.5379 98.9432 48.7841 99.3068 49.125C99.6705 49.4621 99.9602 49.9091 100.176 50.4659C100.392 51.0227 100.5 51.7083 100.5 52.5227V53.0909H93.7727V51.9318H99.1364C99.1364 51.4394 99.0379 51 98.8409 50.6136C98.6477 50.2273 98.3712 49.9223 98.0114 49.6989C97.6553 49.4754 97.2348 49.3636 96.75 49.3636C96.2159 49.3636 95.7538 49.4962 95.3636 49.7614C94.9773 50.0227 94.6799 50.3636 94.4716 50.7841C94.2633 51.2045 94.1591 51.6553 94.1591 52.1364V52.9091C94.1591 53.5682 94.2727 54.1269 94.5 54.5852C94.7311 55.0398 95.0511 55.3864 95.4602 55.625C95.8693 55.8598 96.3447 55.9773 96.8864 55.9773C97.2386 55.9773 97.5568 55.928 97.8409 55.8295C98.1288 55.7273 98.3769 55.5758 98.5852 55.375C98.7936 55.1705 98.9545 54.9167 99.0682 54.6136L100.364 54.9773C100.227 55.4167 99.9981 55.803 99.6761 56.1364C99.3542 56.4659 98.9564 56.7235 98.483 56.9091C98.0095 57.0909 97.4773 57.1818 96.8864 57.1818ZM103.305 48.2727L105.396 51.8409L107.487 48.2727H109.033L106.214 52.6364L109.033 57H107.487L105.396 53.6136L103.305 57H101.76L104.533 52.6364L101.76 48.2727H103.305ZM110.946 60.2727V48.2727H112.241V49.6591H112.401C112.499 49.5076 112.635 49.3144 112.81 49.0795C112.988 48.8409 113.241 48.6288 113.571 48.4432C113.904 48.2538 114.355 48.1591 114.923 48.1591C115.658 48.1591 116.306 48.3428 116.866 48.7102C117.427 49.0777 117.865 49.5985 118.179 50.2727C118.493 50.947 118.651 51.7424 118.651 52.6591C118.651 53.5833 118.493 54.3845 118.179 55.0625C117.865 55.7367 117.429 56.2595 116.872 56.6307C116.315 56.9981 115.673 57.1818 114.946 57.1818C114.385 57.1818 113.937 57.089 113.599 56.9034C113.262 56.714 113.003 56.5 112.821 56.2614C112.639 56.0189 112.499 55.8182 112.401 55.6591H112.287V60.2727H110.946ZM112.264 52.6364C112.264 53.2955 112.361 53.8769 112.554 54.3807C112.747 54.8807 113.029 55.2727 113.401 55.5568C113.772 55.8371 114.226 55.9773 114.764 55.9773C115.325 55.9773 115.793 55.8295 116.168 55.5341C116.546 55.2348 116.83 54.8333 117.02 54.3295C117.213 53.822 117.31 53.2576 117.31 52.6364C117.31 52.0227 117.215 51.4697 117.026 50.9773C116.84 50.4811 116.558 50.089 116.179 49.8011C115.804 49.5095 115.332 49.3636 114.764 49.3636C114.219 49.3636 113.76 49.5019 113.389 49.7784C113.018 50.0511 112.738 50.4337 112.548 50.9261C112.359 51.4148 112.264 51.9848 112.264 52.6364ZM120.696 57V48.2727H121.991V49.5909H122.082C122.241 49.1591 122.529 48.8087 122.946 48.5398C123.363 48.2708 123.832 48.1364 124.355 48.1364C124.454 48.1364 124.577 48.1383 124.724 48.142C124.872 48.1458 124.984 48.1515 125.06 48.1591V49.5227C125.014 49.5114 124.91 49.4943 124.747 49.4716C124.588 49.4451 124.42 49.4318 124.241 49.4318C123.817 49.4318 123.438 49.5208 123.105 49.6989C122.776 49.8731 122.514 50.1155 122.321 50.4261C122.132 50.733 122.037 51.0833 122.037 51.4773V57H120.696ZM130.043 57.1818C129.202 57.1818 128.476 56.9962 127.866 56.625C127.26 56.25 126.793 55.7273 126.463 55.0568C126.137 54.3826 125.974 53.5985 125.974 52.7045C125.974 51.8106 126.137 51.0227 126.463 50.3409C126.793 49.6553 127.251 49.1212 127.838 48.7386C128.429 48.3523 129.118 48.1591 129.906 48.1591C130.361 48.1591 130.81 48.2348 131.253 48.3864C131.696 48.5379 132.099 48.7841 132.463 49.125C132.827 49.4621 133.116 49.9091 133.332 50.4659C133.548 51.0227 133.656 51.7083 133.656 52.5227V53.0909H126.929V51.9318H132.293C132.293 51.4394 132.194 51 131.997 50.6136C131.804 50.2273 131.527 49.9223 131.168 49.6989C130.812 49.4754 130.391 49.3636 129.906 49.3636C129.372 49.3636 128.91 49.4962 128.52 49.7614C128.134 50.0227 127.836 50.3636 127.628 50.7841C127.42 51.2045 127.315 51.6553 127.315 52.1364V52.9091C127.315 53.5682 127.429 54.1269 127.656 54.5852C127.887 55.0398 128.207 55.3864 128.616 55.625C129.026 55.8598 129.501 55.9773 130.043 55.9773C130.395 55.9773 130.713 55.928 130.997 55.8295C131.285 55.7273 131.533 55.5758 131.741 55.375C131.95 55.1705 132.111 54.9167 132.224 54.6136L133.52 54.9773C133.384 55.4167 133.154 55.803 132.832 56.1364C132.51 56.4659 132.113 56.7235 131.639 56.9091C131.166 57.0909 130.634 57.1818 130.043 57.1818ZM141.878 50.2273L140.673 50.5682C140.598 50.3674 140.486 50.1723 140.338 49.983C140.194 49.7898 139.997 49.6307 139.747 49.5057C139.497 49.3807 139.177 49.3182 138.787 49.3182C138.253 49.3182 137.808 49.4413 137.452 49.6875C137.099 49.9299 136.923 50.2386 136.923 50.6136C136.923 50.947 137.045 51.2102 137.287 51.4034C137.529 51.5966 137.908 51.7576 138.423 51.8864L139.719 52.2045C140.499 52.3939 141.08 52.6837 141.463 53.0739C141.846 53.4602 142.037 53.9583 142.037 54.5682C142.037 55.0682 141.893 55.5152 141.605 55.9091C141.321 56.303 140.923 56.6136 140.412 56.8409C139.901 57.0682 139.306 57.1818 138.628 57.1818C137.738 57.1818 137.001 56.9886 136.418 56.6023C135.834 56.2159 135.465 55.6515 135.31 54.9091L136.582 54.5909C136.704 55.0606 136.933 55.4129 137.27 55.6477C137.611 55.8826 138.056 56 138.605 56C139.23 56 139.726 55.8674 140.094 55.6023C140.465 55.3333 140.651 55.0114 140.651 54.6364C140.651 54.3333 140.545 54.0795 140.332 53.875C140.12 53.6667 139.795 53.5114 139.355 53.4091L137.901 53.0682C137.101 52.8788 136.514 52.5852 136.139 52.1875C135.768 51.786 135.582 51.2841 135.582 50.6818C135.582 50.1894 135.721 49.7538 135.997 49.375C136.277 48.9962 136.658 48.6989 137.139 48.483C137.624 48.267 138.173 48.1591 138.787 48.1591C139.651 48.1591 140.329 48.3485 140.821 48.7273C141.317 49.1061 141.67 49.6061 141.878 50.2273ZM150.237 50.2273L149.033 50.5682C148.957 50.3674 148.845 50.1723 148.697 49.983C148.554 49.7898 148.357 49.6307 148.107 49.5057C147.857 49.3807 147.536 49.3182 147.146 49.3182C146.612 49.3182 146.167 49.4413 145.811 49.6875C145.459 49.9299 145.283 50.2386 145.283 50.6136C145.283 50.947 145.404 51.2102 145.646 51.4034C145.889 51.5966 146.268 51.7576 146.783 51.8864L148.078 52.2045C148.858 52.3939 149.44 52.6837 149.822 53.0739C150.205 53.4602 150.396 53.9583 150.396 54.5682C150.396 55.0682 150.252 55.5152 149.964 55.9091C149.68 56.303 149.283 56.6136 148.771 56.8409C148.26 57.0682 147.665 57.1818 146.987 57.1818C146.097 57.1818 145.36 56.9886 144.777 56.6023C144.194 56.2159 143.824 55.6515 143.669 54.9091L144.942 54.5909C145.063 55.0606 145.292 55.4129 145.629 55.6477C145.97 55.8826 146.415 56 146.964 56C147.589 56 148.086 55.8674 148.453 55.6023C148.824 55.3333 149.01 55.0114 149.01 54.6364C149.01 54.3333 148.904 54.0795 148.692 53.875C148.48 53.6667 148.154 53.5114 147.714 53.4091L146.26 53.0682C145.461 52.8788 144.874 52.5852 144.499 52.1875C144.127 51.786 143.942 51.2841 143.942 50.6818C143.942 50.1894 144.08 49.7538 144.357 49.375C144.637 48.9962 145.018 48.6989 145.499 48.483C145.983 48.267 146.533 48.1591 147.146 48.1591C148.01 48.1591 148.688 48.3485 149.18 48.7273C149.677 49.1061 150.029 49.6061 150.237 50.2273ZM152.415 48.2727H153.756V57.6364C153.756 58.1742 153.663 58.6402 153.477 59.0341C153.295 59.428 153.019 59.733 152.648 59.9489C152.28 60.1648 151.816 60.2727 151.256 60.2727C151.21 60.2727 151.165 60.2727 151.119 60.2727C151.074 60.2727 151.028 60.2727 150.983 60.2727V59.0227C151.028 59.0227 151.07 59.0227 151.108 59.0227C151.146 59.0227 151.188 59.0227 151.233 59.0227C151.642 59.0227 151.941 58.9015 152.131 58.6591C152.32 58.4205 152.415 58.0795 152.415 57.6364V48.2727ZM153.074 46.8182C152.813 46.8182 152.587 46.7292 152.398 46.5511C152.212 46.3731 152.119 46.1591 152.119 45.9091C152.119 45.6591 152.212 45.4451 152.398 45.267C152.587 45.089 152.813 45 153.074 45C153.335 45 153.559 45.089 153.744 45.267C153.934 45.4451 154.028 45.6591 154.028 45.9091C154.028 46.1591 153.934 46.3731 153.744 46.5511C153.559 46.7292 153.335 46.8182 153.074 46.8182ZM162.393 50.2273L161.189 50.5682C161.113 50.3674 161.001 50.1723 160.854 49.983C160.71 49.7898 160.513 49.6307 160.263 49.5057C160.013 49.3807 159.693 49.3182 159.303 49.3182C158.768 49.3182 158.323 49.4413 157.967 49.6875C157.615 49.9299 157.439 50.2386 157.439 50.6136C157.439 50.947 157.56 51.2102 157.803 51.4034C158.045 51.5966 158.424 51.7576 158.939 51.8864L160.234 52.2045C161.015 52.3939 161.596 52.6837 161.979 53.0739C162.361 53.4602 162.553 53.9583 162.553 54.5682C162.553 55.0682 162.409 55.5152 162.121 55.9091C161.837 56.303 161.439 56.6136 160.928 56.8409C160.416 57.0682 159.821 57.1818 159.143 57.1818C158.253 57.1818 157.517 56.9886 156.933 56.6023C156.35 56.2159 155.981 55.6515 155.825 54.9091L157.098 54.5909C157.219 55.0606 157.448 55.4129 157.786 55.6477C158.126 55.8826 158.571 56 159.121 56C159.746 56 160.242 55.8674 160.609 55.6023C160.981 55.3333 161.166 55.0114 161.166 54.6364C161.166 54.3333 161.06 54.0795 160.848 53.875C160.636 53.6667 160.31 53.5114 159.871 53.4091L158.416 53.0682C157.617 52.8788 157.03 52.5852 156.655 52.1875C156.284 51.786 156.098 51.2841 156.098 50.6818C156.098 50.1894 156.236 49.7538 156.513 49.375C156.793 48.9962 157.174 48.6989 157.655 48.483C158.14 48.267 158.689 48.1591 159.303 48.1591C160.166 48.1591 160.844 48.3485 161.337 48.7273C161.833 49.1061 162.185 49.6061 162.393 50.2273ZM169.571 51.3864V52.6364H164.48V51.3864H169.571ZM175.476 57.1818C174.658 57.1818 173.953 56.9886 173.362 56.6023C172.771 56.2159 172.317 55.6837 171.999 55.0057C171.68 54.3277 171.521 53.553 171.521 52.6818C171.521 51.7955 171.684 51.0133 172.01 50.3352C172.339 49.6534 172.798 49.1212 173.385 48.7386C173.976 48.3523 174.665 48.1591 175.453 48.1591C176.067 48.1591 176.62 48.2727 177.112 48.5C177.605 48.7273 178.008 49.0455 178.322 49.4545C178.637 49.8636 178.832 50.3409 178.908 50.8864H177.567C177.464 50.4886 177.237 50.1364 176.885 49.8295C176.536 49.5189 176.067 49.3636 175.476 49.3636C174.953 49.3636 174.495 49.5 174.101 49.7727C173.711 50.0417 173.406 50.4223 173.186 50.9148C172.97 51.4034 172.862 51.9773 172.862 52.6364C172.862 53.3106 172.968 53.8977 173.18 54.3977C173.396 54.8977 173.699 55.286 174.089 55.5625C174.483 55.839 174.946 55.9773 175.476 55.9773C175.824 55.9773 176.141 55.9167 176.425 55.7955C176.709 55.6742 176.949 55.5 177.146 55.2727C177.343 55.0455 177.483 54.7727 177.567 54.4545H178.908C178.832 54.9697 178.644 55.4337 178.345 55.8466C178.05 56.2557 177.658 56.5814 177.169 56.8239C176.684 57.0625 176.12 57.1818 175.476 57.1818ZM182.209 51.75V57H180.868V48.2727H182.163V49.6364H182.277C182.482 49.1932 182.792 48.8371 183.209 48.5682C183.625 48.2955 184.163 48.1591 184.822 48.1591C185.413 48.1591 185.93 48.2803 186.374 48.5227C186.817 48.7614 187.161 49.125 187.408 49.6136C187.654 50.0985 187.777 50.7121 187.777 51.4545V57H186.436V51.5455C186.436 50.8598 186.258 50.3258 185.902 49.9432C185.546 49.5568 185.057 49.3636 184.436 49.3636C184.008 49.3636 183.625 49.4564 183.288 49.642C182.955 49.8277 182.692 50.0985 182.499 50.4545C182.305 50.8106 182.209 51.2424 182.209 51.75ZM193.932 57.1591C193.152 57.1591 192.462 57.0208 191.864 56.7443C191.269 56.464 190.805 56.0795 190.472 55.5909C190.138 55.0985 189.973 54.5379 189.977 53.9091C189.973 53.4167 190.07 52.9621 190.267 52.5455C190.464 52.125 190.733 51.7746 191.074 51.4943C191.419 51.2102 191.803 51.0303 192.227 50.9545V50.8864C191.67 50.7424 191.227 50.4299 190.898 49.9489C190.568 49.464 190.405 48.9129 190.409 48.2955C190.405 47.7045 190.555 47.1761 190.858 46.7102C191.161 46.2443 191.578 45.8769 192.108 45.608C192.642 45.339 193.25 45.2045 193.932 45.2045C194.606 45.2045 195.208 45.339 195.739 45.608C196.269 45.8769 196.686 46.2443 196.989 46.7102C197.295 47.1761 197.451 47.7045 197.455 48.2955C197.451 48.9129 197.282 49.464 196.949 49.9489C196.619 50.4299 196.182 50.7424 195.636 50.8864V50.9545C196.057 51.0303 196.436 51.2102 196.773 51.4943C197.11 51.7746 197.379 52.125 197.58 52.5455C197.78 52.9621 197.883 53.4167 197.886 53.9091C197.883 54.5379 197.712 55.0985 197.375 55.5909C197.042 56.0795 196.578 56.464 195.983 56.7443C195.392 57.0208 194.708 57.1591 193.932 57.1591ZM193.932 55.9091C194.458 55.9091 194.913 55.8239 195.295 55.6534C195.678 55.483 195.973 55.2424 196.182 54.9318C196.39 54.6212 196.496 54.2576 196.5 53.8409C196.496 53.4015 196.383 53.0133 196.159 52.6761C195.936 52.339 195.631 52.0739 195.244 51.8807C194.862 51.6875 194.424 51.5909 193.932 51.5909C193.436 51.5909 192.992 51.6875 192.602 51.8807C192.216 52.0739 191.911 52.339 191.688 52.6761C191.468 53.0133 191.36 53.4015 191.364 53.8409C191.36 54.2576 191.46 54.6212 191.665 54.9318C191.873 55.2424 192.17 55.483 192.557 55.6534C192.943 55.8239 193.402 55.9091 193.932 55.9091ZM193.932 50.3864C194.348 50.3864 194.718 50.303 195.04 50.1364C195.366 49.9697 195.621 49.7367 195.807 49.4375C195.992 49.1383 196.087 48.7879 196.091 48.3864C196.087 47.9924 195.994 47.6496 195.812 47.358C195.631 47.0625 195.379 46.8352 195.057 46.6761C194.735 46.5133 194.36 46.4318 193.932 46.4318C193.496 46.4318 193.116 46.5133 192.79 46.6761C192.464 46.8352 192.212 47.0625 192.034 47.358C191.856 47.6496 191.769 47.9924 191.773 48.3864C191.769 48.7879 191.858 49.1383 192.04 49.4375C192.225 49.7367 192.481 49.9697 192.807 50.1364C193.133 50.303 193.508 50.3864 193.932 50.3864ZM201.087 48.2727L203.178 51.8409L205.268 48.2727H206.814L203.996 52.6364L206.814 57H205.268L203.178 53.6136L201.087 57H199.541L202.314 52.6364L199.541 48.2727H201.087Z" fill="white"/>
<path d="M271.75 35H269.057V26.2727H271.869C272.716 26.2727 273.44 26.4474 274.043 26.7969C274.645 27.1435 275.107 27.642 275.428 28.2926C275.749 28.9403 275.909 29.7159 275.909 30.6193C275.909 31.5284 275.747 32.3111 275.423 32.9673C275.099 33.6207 274.628 34.1236 274.009 34.4759C273.389 34.8253 272.636 35 271.75 35ZM270.114 34.0625H271.682C272.403 34.0625 273.001 33.9233 273.476 33.6449C273.95 33.3665 274.304 32.9702 274.537 32.456C274.77 31.9418 274.886 31.3295 274.886 30.6193C274.886 29.9148 274.771 29.3082 274.541 28.7997C274.311 28.2884 273.967 27.8963 273.51 27.6236C273.053 27.348 272.483 27.2102 271.801 27.2102H270.114V34.0625ZM280.29 35.1364C279.659 35.1364 279.115 34.9972 278.658 34.7188C278.203 34.4375 277.852 34.0455 277.605 33.5426C277.361 33.0369 277.239 32.4489 277.239 31.7784C277.239 31.108 277.361 30.517 277.605 30.0057C277.852 29.4915 278.196 29.0909 278.636 28.804C279.08 28.5142 279.597 28.3693 280.188 28.3693C280.528 28.3693 280.865 28.4261 281.197 28.5398C281.53 28.6534 281.832 28.8381 282.105 29.0938C282.378 29.3466 282.595 29.6818 282.757 30.0994C282.919 30.517 283 31.0312 283 31.642V32.0682H277.955V31.1989H281.977C281.977 30.8295 281.903 30.5 281.756 30.2102C281.611 29.9205 281.403 29.6918 281.134 29.5241C280.866 29.3565 280.551 29.2727 280.188 29.2727C279.787 29.2727 279.44 29.3722 279.148 29.571C278.858 29.767 278.635 30.0227 278.479 30.3381C278.322 30.6534 278.244 30.9915 278.244 31.3523V31.9318C278.244 32.4261 278.33 32.8452 278.5 33.1889C278.673 33.5298 278.913 33.7898 279.22 33.9688C279.527 34.1449 279.884 34.233 280.29 34.233C280.554 34.233 280.793 34.196 281.006 34.1222C281.222 34.0455 281.408 33.9318 281.564 33.7812C281.72 33.6278 281.841 33.4375 281.926 33.2102L282.898 33.483C282.795 33.8125 282.624 34.1023 282.382 34.3523C282.141 34.5994 281.842 34.7926 281.487 34.9318C281.132 35.0682 280.733 35.1364 280.29 35.1364ZM284.53 37.4545V28.4545H285.501V29.4943H285.621C285.695 29.3807 285.797 29.2358 285.928 29.0597C286.061 28.8807 286.251 28.7216 286.499 28.5824C286.749 28.4403 287.087 28.3693 287.513 28.3693C288.064 28.3693 288.55 28.5071 288.97 28.7827C289.391 29.0582 289.719 29.4489 289.955 29.9545C290.19 30.4602 290.308 31.0568 290.308 31.7443C290.308 32.4375 290.19 33.0384 289.955 33.5469C289.719 34.0526 289.392 34.4446 288.974 34.723C288.557 34.9986 288.075 35.1364 287.53 35.1364C287.109 35.1364 286.773 35.0668 286.52 34.9276C286.267 34.7855 286.072 34.625 285.936 34.446C285.8 34.2642 285.695 34.1136 285.621 33.9943H285.536V37.4545H284.53ZM285.518 31.7273C285.518 32.2216 285.591 32.6577 285.736 33.0355C285.881 33.4105 286.092 33.7045 286.371 33.9176C286.649 34.1278 286.99 34.233 287.393 34.233C287.814 34.233 288.165 34.1222 288.446 33.9006C288.73 33.6761 288.943 33.375 289.085 32.9972C289.23 32.6165 289.303 32.1932 289.303 31.7273C289.303 31.267 289.232 30.8523 289.089 30.483C288.95 30.1108 288.739 29.8168 288.455 29.6009C288.173 29.3821 287.82 29.2727 287.393 29.2727C286.984 29.2727 286.641 29.3764 286.362 29.5838C286.084 29.7884 285.874 30.0753 285.732 30.4446C285.589 30.8111 285.518 31.2386 285.518 31.7273ZM292.848 26.2727V35H291.842V26.2727H292.848ZM297.349 35.1364C296.758 35.1364 296.24 34.9957 295.794 34.7145C295.35 34.4332 295.004 34.0398 294.754 33.5341C294.507 33.0284 294.383 32.4375 294.383 31.7614C294.383 31.0795 294.507 30.4844 294.754 29.9759C295.004 29.4673 295.35 29.0724 295.794 28.7912C296.24 28.5099 296.758 28.3693 297.349 28.3693C297.94 28.3693 298.457 28.5099 298.9 28.7912C299.346 29.0724 299.693 29.4673 299.94 29.9759C300.19 30.4844 300.315 31.0795 300.315 31.7614C300.315 32.4375 300.19 33.0284 299.94 33.5341C299.693 34.0398 299.346 34.4332 298.9 34.7145C298.457 34.9957 297.94 35.1364 297.349 35.1364ZM297.349 34.233C297.798 34.233 298.167 34.1179 298.457 33.8878C298.747 33.6577 298.961 33.3551 299.1 32.9801C299.24 32.6051 299.309 32.1989 299.309 31.7614C299.309 31.3239 299.24 30.9162 299.1 30.5384C298.961 30.1605 298.747 29.8551 298.457 29.6222C298.167 29.3892 297.798 29.2727 297.349 29.2727C296.9 29.2727 296.531 29.3892 296.241 29.6222C295.951 29.8551 295.737 30.1605 295.598 30.5384C295.458 30.9162 295.389 31.3239 295.389 31.7614C295.389 32.1989 295.458 32.6051 295.598 32.9801C295.737 33.3551 295.951 33.6577 296.241 33.8878C296.531 34.1179 296.9 34.233 297.349 34.233ZM302.263 37.4545C302.093 37.4545 301.941 37.4403 301.808 37.4119C301.674 37.3864 301.582 37.3608 301.531 37.3352L301.786 36.4489C302.031 36.5114 302.246 36.5341 302.434 36.517C302.621 36.5 302.788 36.4162 302.933 36.2656C303.08 36.1179 303.215 35.8778 303.337 35.5455L303.525 35.0341L301.104 28.4545H302.195L304.002 33.6705H304.07L305.877 28.4545H306.968L304.19 35.9545C304.065 36.2926 303.91 36.5724 303.725 36.794C303.54 37.0185 303.326 37.1847 303.082 37.2926C302.84 37.4006 302.567 37.4545 302.263 37.4545ZM308.295 35V28.4545H309.301V35H308.295ZM308.807 27.3636C308.611 27.3636 308.442 27.2969 308.3 27.1634C308.161 27.0298 308.091 26.8693 308.091 26.6818C308.091 26.4943 308.161 26.3338 308.3 26.2003C308.442 26.0668 308.611 26 308.807 26C309.003 26 309.17 26.0668 309.31 26.2003C309.452 26.3338 309.523 26.4943 309.523 26.6818C309.523 26.8693 309.452 27.0298 309.31 27.1634C309.17 27.2969 309.003 27.3636 308.807 27.3636ZM312.149 31.0625V35H311.143V28.4545H312.115V29.4773H312.2C312.353 29.1449 312.586 28.8778 312.899 28.6761C313.211 28.4716 313.615 28.3693 314.109 28.3693C314.552 28.3693 314.94 28.4602 315.272 28.642C315.605 28.821 315.863 29.0938 316.048 29.4602C316.233 29.8239 316.325 30.2841 316.325 30.8409V35H315.319V30.9091C315.319 30.3949 315.186 29.9943 314.919 29.7074C314.652 29.4176 314.285 29.2727 313.819 29.2727C313.498 29.2727 313.211 29.3423 312.958 29.4815C312.708 29.6207 312.511 29.8239 312.366 30.0909C312.221 30.358 312.149 30.6818 312.149 31.0625ZM320.805 37.5909C320.319 37.5909 319.901 37.5284 319.552 37.4034C319.202 37.2812 318.911 37.1193 318.678 36.9176C318.448 36.7188 318.265 36.5057 318.129 36.2784L318.93 35.7159C319.021 35.8352 319.136 35.9716 319.275 36.125C319.414 36.2812 319.604 36.4162 319.846 36.5298C320.09 36.6463 320.41 36.7045 320.805 36.7045C321.333 36.7045 321.769 36.5767 322.113 36.321C322.457 36.0653 322.629 35.6648 322.629 35.1193V33.7898H322.543C322.469 33.9091 322.364 34.0568 322.228 34.233C322.094 34.4062 321.901 34.5611 321.648 34.6974C321.398 34.831 321.06 34.8977 320.634 34.8977C320.106 34.8977 319.631 34.7727 319.211 34.5227C318.793 34.2727 318.462 33.9091 318.218 33.4318C317.977 32.9545 317.856 32.375 317.856 31.6932C317.856 31.0227 317.974 30.4389 318.21 29.9418C318.445 29.4418 318.773 29.0554 319.194 28.7827C319.614 28.5071 320.1 28.3693 320.651 28.3693C321.077 28.3693 321.415 28.4403 321.665 28.5824C321.918 28.7216 322.112 28.8807 322.245 29.0597C322.381 29.2358 322.487 29.3807 322.56 29.4943H322.663V28.4545H323.634V35.1875C323.634 35.75 323.506 36.2074 323.251 36.5597C322.998 36.9148 322.657 37.1747 322.228 37.3395C321.802 37.5071 321.327 37.5909 320.805 37.5909ZM320.771 33.9943C321.174 33.9943 321.515 33.902 321.793 33.7173C322.072 33.5327 322.283 33.267 322.428 32.9205C322.573 32.5739 322.646 32.1591 322.646 31.6761C322.646 31.2045 322.575 30.7884 322.433 30.4276C322.29 30.0668 322.08 29.7841 321.802 29.5795C321.523 29.375 321.18 29.2727 320.771 29.2727C320.344 29.2727 319.989 29.3807 319.705 29.5966C319.424 29.8125 319.212 30.1023 319.07 30.4659C318.931 30.8295 318.862 31.233 318.862 31.6761C318.862 32.1307 318.933 32.5327 319.075 32.8821C319.219 33.2287 319.433 33.5014 319.714 33.7003C319.998 33.8963 320.35 33.9943 320.771 33.9943Z" fill="#C4C4C4" fill-opacity="0.66"/>
<g clip-path="url(#clip0_1_8108)">
<path fill-rule="evenodd" clip-rule="evenodd" d="M271.859 46.4219V45.8125H270.641V46.4219V52.3893C269.589 52.6599 268.812 53.6142 268.812 54.75C268.812 56.0962 269.904 57.1875 271.25 57.1875C272.404 57.1875 273.371 56.3853 273.623 55.3081C274.801 55.1459 275.903 54.6035 276.753 53.7531C277.604 52.9025 278.146 51.8015 278.308 50.6233C279.385 50.371 280.188 49.4042 280.188 48.25C280.188 46.9038 279.096 45.8125 277.75 45.8125C276.404 45.8125 275.312 46.9038 275.312 48.25C275.312 49.3637 276.059 50.3029 277.08 50.5941C276.932 51.4586 276.52 52.2629 275.891 52.8913C275.263 53.5196 274.459 53.9317 273.594 54.0796C273.358 53.2522 272.695 52.6045 271.859 52.3893V46.4219ZM278.969 48.25C278.969 48.9231 278.423 49.4688 277.75 49.4688C277.077 49.4688 276.531 48.9231 276.531 48.25C276.531 47.5769 277.077 47.0312 277.75 47.0312C278.423 47.0312 278.969 47.5769 278.969 48.25ZM271.25 55.9688C271.923 55.9688 272.469 55.4231 272.469 54.75C272.469 54.0769 271.923 53.5312 271.25 53.5312C270.577 53.5312 270.031 54.0769 270.031 54.75C270.031 55.4231 270.577 55.9688 271.25 55.9688Z" fill="white"/>
</g>
<path d="M295.386 51.1818C295.386 52.4242 295.159 53.4924 294.705 54.3864C294.25 55.2765 293.627 55.9621 292.835 56.4432C292.047 56.9205 291.152 57.1591 290.148 57.1591C289.14 57.1591 288.241 56.9205 287.449 56.4432C286.661 55.9621 286.04 55.2746 285.585 54.3807C285.131 53.4867 284.903 52.4205 284.903 51.1818C284.903 49.9394 285.131 48.8731 285.585 47.983C286.04 47.089 286.661 46.4034 287.449 45.9261C288.241 45.4451 289.14 45.2045 290.148 45.2045C291.152 45.2045 292.047 45.4451 292.835 45.9261C293.627 46.4034 294.25 47.089 294.705 47.983C295.159 48.8731 295.386 49.9394 295.386 51.1818ZM293.648 51.1818C293.648 50.2348 293.494 49.4375 293.188 48.7898C292.884 48.1383 292.468 47.6458 291.938 47.3125C291.411 46.9754 290.814 46.8068 290.148 46.8068C289.477 46.8068 288.879 46.9754 288.352 47.3125C287.826 47.6458 287.409 48.1383 287.102 48.7898C286.799 49.4375 286.648 50.2348 286.648 51.1818C286.648 52.1288 286.799 52.928 287.102 53.5795C287.409 54.2273 287.826 54.7197 288.352 55.0568C288.879 55.3902 289.477 55.5568 290.148 55.5568C290.814 55.5568 291.411 55.3902 291.938 55.0568C292.468 54.7197 292.884 54.2273 293.188 53.5795C293.494 52.928 293.648 52.1288 293.648 51.1818ZM301.513 48.2727V49.6364H296.746V48.2727H301.513ZM298.024 46.1818H299.723V54.4375C299.723 54.767 299.772 55.0152 299.871 55.1818C299.969 55.3447 300.096 55.4564 300.251 55.517C300.411 55.5739 300.583 55.6023 300.768 55.6023C300.905 55.6023 301.024 55.5928 301.126 55.5739C301.229 55.5549 301.308 55.5398 301.365 55.5284L301.672 56.9318C301.573 56.9697 301.433 57.0076 301.251 57.0455C301.07 57.0871 300.842 57.1098 300.57 57.1136C300.123 57.1212 299.706 57.0417 299.32 56.875C298.933 56.7083 298.621 56.4508 298.382 56.1023C298.143 55.7538 298.024 55.3163 298.024 54.7898V46.1818ZM305.278 51.8182V57H303.58V45.3636H305.256V49.6932H305.364C305.568 49.2235 305.881 48.8504 306.301 48.5739C306.722 48.2973 307.271 48.1591 307.949 48.1591C308.547 48.1591 309.07 48.2822 309.517 48.5284C309.968 48.7746 310.316 49.142 310.562 49.6307C310.812 50.1155 310.938 50.7216 310.938 51.4489V57H309.239V51.6534C309.239 51.0133 309.074 50.517 308.744 50.1648C308.415 49.8087 307.956 49.6307 307.369 49.6307C306.968 49.6307 306.608 49.7159 306.29 49.8864C305.975 50.0568 305.727 50.3068 305.545 50.6364C305.367 50.9621 305.278 51.3561 305.278 51.8182ZM316.966 57.1761C316.106 57.1761 315.366 56.9924 314.744 56.625C314.127 56.2538 313.65 55.733 313.312 55.0625C312.979 54.3883 312.812 53.5985 312.812 52.6932C312.812 51.7992 312.979 51.0114 313.312 50.3295C313.65 49.6477 314.119 49.1155 314.722 48.733C315.328 48.3504 316.036 48.1591 316.847 48.1591C317.339 48.1591 317.816 48.2405 318.278 48.4034C318.741 48.5663 319.155 48.822 319.523 49.1705C319.89 49.5189 320.18 49.9716 320.392 50.5284C320.604 51.0814 320.71 51.7538 320.71 52.5455V53.1477H313.773V51.875H319.045C319.045 51.428 318.955 51.0322 318.773 50.6875C318.591 50.339 318.335 50.0644 318.006 49.8636C317.68 49.6629 317.297 49.5625 316.858 49.5625C316.381 49.5625 315.964 49.6799 315.608 49.9148C315.256 50.1458 314.983 50.4489 314.79 50.8239C314.6 51.1951 314.506 51.5985 314.506 52.0341V53.0284C314.506 53.6117 314.608 54.108 314.812 54.517C315.021 54.9261 315.311 55.2386 315.682 55.4545C316.053 55.6667 316.487 55.7727 316.983 55.7727C317.305 55.7727 317.598 55.7273 317.864 55.6364C318.129 55.5417 318.358 55.4015 318.551 55.2159C318.744 55.0303 318.892 54.8011 318.994 54.5284L320.602 54.8182C320.473 55.2917 320.242 55.7064 319.909 56.0625C319.58 56.4148 319.165 56.6894 318.665 56.8864C318.169 57.0795 317.602 57.1761 316.966 57.1761ZM322.595 57V48.2727H324.237V49.6591H324.328C324.487 49.1894 324.768 48.8201 325.169 48.5511C325.574 48.2784 326.033 48.142 326.544 48.142C326.65 48.142 326.775 48.1458 326.919 48.1534C327.067 48.161 327.182 48.1705 327.266 48.1818V49.8068C327.197 49.7879 327.076 49.767 326.902 49.7443C326.728 49.7178 326.554 49.7045 326.379 49.7045C325.978 49.7045 325.62 49.7898 325.305 49.9602C324.995 50.1269 324.749 50.3598 324.567 50.6591C324.385 50.9545 324.294 51.2917 324.294 51.6705V57H322.595Z" fill="white"/>
<defs>
<clipPath id="clip0_1_8108">
<rect width="13" height="13" fill="white" transform="translate(268 45)"/>
</clipPath>
</defs>
</svg>
